<svg xmlns="http://www.w3.org/2000/svg" viewBox="0 0 449.48 75"><defs><style>.cls-1{fill:#fff;}</style></defs><g id="Layer_2" data-name="Layer 2"><g id="Layer_1-2" data-name="Layer 1"><polygon class="cls-1" points="449.48 53.83 449.48 24.5 420.15 24.5 449.48 53.83"/><path class="cls-1" d="M11.5,21.5v6.7c3.5-6.4,9.3-8.5,14.8-8.5,7.2,0,12.4,3.4,15.4,9,3-5.5,8.8-9,16.6-9,11.4,0,18.4,7.1,18.4,20.4V73.5H65.2V42.1c0-8-3.5-11.9-10-11.9-7.3,0-11.1,5.2-11.1,14.2V73.5H32.6V42.2c0-8.1-3.6-12-9.8-12-7.4,0-11.1,5.9-11.3,14.9V73.5H0v-52Z"/><path class="cls-1" d="M100.7,44c15-2.6,17.3-3,17.3-7.8,0-5.1-4.7-7.4-10.8-7.4-7.4,0-12.6,4.2-12.6,11.6l-10.2-4c1.5-9.8,10.7-16.7,22.8-16.7,13.5,0,22,6.4,22,18V63.2L131,73.5H120.8l-2.2-6.4c-3.8,5.2-10.3,7.81-17.5,7.81-10.4,0-17.7-5.7-17.7-15C83.4,51,90.2,45.9,100.7,44Zm3,22.2c9.4,0,14.3-5.9,14.3-13.6V48.1c-1.6,1.4-4.6,1.8-14.1,3.6-4.9,1-8.4,3-8.4,7.6C95.5,63.2,98.5,66.2,103.7,66.2Z"/><path class="cls-1" d="M155.2,1.9V21.5H170v9.9H155.2V56.7c0,6.4,2.5,7.7,7.7,7.7a35.05,35.05,0,0,0,6.3-.8V73.71c-1.7.7-6.3,1.09-8,1.09-11.3,0-17.5-4.7-17.5-16.6V31.4h-9.3V21.5h9.3v-11Z"/><path class="cls-1" d="M190.1,1.9V21.5h14.8v9.9H190.1V56.7c0,6.4,2.5,7.7,7.7,7.7a35.05,35.05,0,0,0,6.3-.8V73.71c-1.7.7-6.3,1.09-8,1.09-11.3,0-17.5-4.7-17.5-16.6V31.4h-9.3V21.5h9.3v-11Z"/><path class="cls-1" d="M259.2,46.5a39.27,39.27,0,0,1-.3,4.6H220.3c1.2,9.9,7.1,14.2,15,14.2,7.3,0,12-2.9,14.8-9.3l8.3,7.4C253.5,71.3,244.6,75,235,75c-16.4,0-26.8-11.3-26.8-27.4s11-27.9,26.1-27.9C249.6,19.7,259.2,30.6,259.2,46.5Zm-12.4-3.8c0-8-4.7-13.3-12.7-13.3-6.8,0-12.3,4.3-13.7,13.3Z"/><path class="cls-1" d="M277.9,21.5v8.2c3.8-7.5,10-9.4,14.8-9.4a11.69,11.69,0,0,1,4.6.7V32.4a19.16,19.16,0,0,0-5.9-.9c-8,0-13.5,5.4-13.5,16.9V73.5H266.4v-52Z"/><path class="cls-1" d="M349.4,46.5a39.27,39.27,0,0,1-.3,4.6H310.5c1.2,9.9,7.1,14.2,15,14.2,7.3,0,12-2.9,14.8-9.3l8.3,7.4C343.7,71.3,334.8,75,325.2,75c-16.4,0-26.8-11.3-26.8-27.4s11-27.9,26.1-27.9C339.8,19.7,349.4,30.6,349.4,46.5ZM337,42.7c0-8-4.7-13.3-12.7-13.3-6.8,0-12.3,4.3-13.7,13.3Z"/><path class="cls-1" d="M410.4,73.5H399V66.9c-4.1,4.9-10.1,8.1-18.2,8.1-15.6,0-26.3-11.9-26.3-27.5s10.6-27.8,26.3-27.8c8,0,14,3.2,18.1,8.1V0h11.5Zm-27.5-9c9.4,0,16.4-6.9,16.4-17s-7-17.4-16.4-17.4c-9.8,0-16.5,7.3-16.5,17.4C366.4,57.4,373.1,64.5,382.9,64.5Z"/></g></g></svg>